# xmcd CD database file
#
# Track frame offsets:
#	150
#	13794
#	29552
#	45673
#	59982
#	76691
#	89735
#	102522
#	116980
#	131651
#
# Disc length: 1966 seconds
#
# Revision: 0
# Processed by: cddbd v1.4PL0 Copyright (c) Steve Scherf et al.
# Submitted via: CDex 1.40Release
#
DISCID=9107ac0a
DTITLE=Jolie Holliday - A real good day
DYEAR=1900
DGENRE=Country
TTITLE0=All the good ones are gone
TTITLE1=Hungry side of love
TTITLE2=Somewhere, Someway, Somehow, Someday
TTITLE3=Mr man in the moon
TTITLE4=A real good day
TTITLE5=Once a day
TTITLE6=Shy little bayou love
TTITLE7=Dreamer
TTITLE8=Big bad broken heart
TTITLE9=Full moon, and half truths, and empty promises
EXTD=ID3G: 2
EXTT0=
EXTT1=
EXTT2=
EXTT3=
EXTT4=
EXTT5=
EXTT6=
EXTT7=
EXTT8=
EXTT9=
PLAYORDER=
